<svg xmlns="http://www.w3.org/2000/svg" width="150.814" height="35" viewBox="0 0 150.814 35">
  <g id="Logo" transform="translate(-139.995 -77.074)">
    <path d="M198.93,21a6.753,6.753,0,0,1-3.481,1.953c-3.074.534-6.177.872-9.248,1.423a36.423,36.423,0,0,0-6.412,1.542,21.955,21.955,0,0,0-8.276,5.833,13.981,13.981,0,0,1-2.788,2.468,9,9,0,0,1-3.237.926,7.742,7.742,0,0,0,4.831-4.76,7.954,7.954,0,0,0-.662-6.941,6.167,6.167,0,0,0-4.543-3.211,6.688,6.688,0,0,0-5.332,1.223,5.529,5.529,0,0,1,3.521-2.424,31.3,31.3,0,0,1,4.076-.574,9.915,9.915,0,0,0,4.068-1.5,26.329,26.329,0,0,0,6.492-5.585c2.11-2.435,4.177-4.916,6.353-7.279A12,12,0,0,1,189.069.728c3.176-1.114,7.543-.733,10.139,2.123a8.549,8.549,0,0,0-6-.758A8.1,8.1,0,0,0,188.1,5.34a10.415,10.415,0,0,0-.106,12.854A8.934,8.934,0,0,0,198.93,21Z" transform="translate(-19.787 76.926)" fill="#ff721d"/>
    <path d="M25.119,13.582a1.6,1.6,0,0,1-1.868-1.3h7.525c1.01,0,1.252-.221,1.261-1.092,0-.631-.417-.994-1.278-1-1.65-.016-3.3.018-4.947.018-1.192,0-1.6-.5-1.34-1.676.162-.739.36-1.476.575-2.207A2.852,2.852,0,0,1,28,4.021c2.894-.036,5.8-.007,8.707-.007-.079.939-.519,1.407-1.429,1.423-1.191.02-2.382.02-3.571.02h-1.6c-.222,0-.443-.011-.666.009-.5.044-1.025.089-1.078.749-.058.716.454.96,1.019,1,.612.047,1.228.043,1.844.04H31.9c.961,0,1.922-.021,2.879,0,1.33.04,1.722.538,1.413,1.825-.193.809-.43,1.608-.7,2.394A2.963,2.963,0,0,1,32.5,13.569c-1.146.019-2.292.025-3.439.025C27.75,13.6,26.435,13.589,25.119,13.582Zm49.742.008c-1.624,0-2.216-.672-1.9-2.26s.684-3.16,1.1-4.723A3.389,3.389,0,0,1,77.634,3.95c2.451.084,4.909.022,7.375.022-.351,1.274-.61,1.476-1.835,1.476H79.56c-1.035,0-1.261.158-1.5,1.137-.357,1.452-.7,2.906-1.013,4.366-.184.861-.065,1.055.826,1.182a21.2,21.2,0,0,0,2.424.131c.7.029,1.382.013,2.139.013-.417,1.126-.652,1.31-1.666,1.311q-1.477,0-2.954,0Zm-26.635,0c.25-1.048.463-1.966.686-2.882q.681-2.784,1.371-5.569c.23-.923.526-1.158,1.49-1.162.74,0,1.478.013,2.216.025a1.82,1.82,0,0,1,.315.084c-.394,1.672-.768,3.287-1.152,4.9-.267,1.12-.53,2.242-.824,3.356-.27,1.025-.571,1.241-1.609,1.247Zm45.5-.029c-.177,0-.433-.28-.5-.479-.544-1.674-1.053-3.358-1.6-5.144-.814.513-1.576.977-2.316,1.475a.912.912,0,0,0-.236.51c-.247,1.025-.5,2.045-.709,3.079a.623.623,0,0,1-.74.582c-1.1-.032-2.2-.011-3.4-.011,1.122-4.6,2.216-9.059,3.31-13.551h3.958c-.576,2.3-1.129,4.571-1.711,6.963l6.575-3.826a3.657,3.657,0,0,1-1.433,2.329.691.691,0,0,0-.3.971c.7,2.118,1.368,4.246,2.049,6.372.073.229.127.462.207.757-.537,0-1.059.006-1.576.006-.534,0-1.058,0-1.581-.028Zm-27.136.022c.4-1.674.777-3.261,1.154-4.868-1.394,0-2.7-.065-3.99.04A1.694,1.694,0,0,0,62.7,9.61a5.142,5.142,0,0,0-.374,1.561.832.832,0,0,0,.845,1.1c.877.046,1.758.01,2.658.01-.394,1.033-.769,1.313-1.75,1.31-1.5,0-3,.013-4.5-.037-1.37-.047-1.6-.315-1.373-1.672a20.224,20.224,0,0,1,.7-2.694c.457-1.444,1.717-1.568,2.93-1.611,1.03-.038,2.06-.028,3.09-.018.594.006,1.189.013,1.785.009.266,0,.641.04.774-.108a9.2,9.2,0,0,0,.843-1.295c-.4-.216-.8-.6-1.212-.619a27.231,27.231,0,0,0-3.99.056,2.014,2.014,0,0,1-2.257-1.535c.227-.018.43-.049.631-.049h8.422c2.234,0,2.669.525,2.193,2.719-.459,2.107-.973,4.2-1.49,6.3-.05.209-.283.523-.441.53-.608.023-1.218.028-1.836.028-.575,0-1.155-.006-1.751-.006Zm-26.325,0c-1.31,0-1.852-.558-1.6-1.833.38-1.919.867-3.82,1.305-5.732.032-.147.048-.286.085-.521-1.035.054-1.543-.574-1.922-1.542.657,0,1.234-.02,1.813,0a.545.545,0,0,0,.663-.494c.139-.613.166-1.453.568-1.749a2.038,2.038,0,0,1,1.267-.131c.206.017.411.033.6.032h1.933c-.187.788-.357,1.509-.552,2.337h4.03c-.148,1.06-.534,1.477-1.458,1.5-.962.042-1.923.013-2.9.013-.473,1.918-.951,3.766-1.384,5.622-.172.736.166,1.112,1.009,1.161.53.03,1.062.024,1.6.02h1.5c-.28,1.032-.607,1.313-1.523,1.313Zm-22.748-.034,1.133-4.889c-1.412,0-2.754-.054-4.087.037a1.449,1.449,0,0,0-.928.788,7.015,7.015,0,0,0-.473,1.772c-.1.552.266.834.74.912a12.95,12.95,0,0,0,1.535.1c.394.017.788,0,1.246,0-.229.752-.655,1.256-1.424,1.261-1.747.019-3.492-.029-5.237-.044-.726,0-1.12-.46-.985-1.083A23.036,23.036,0,0,1,10.159,8.56c.346-.842,1.267-1.014,2.144-1.018,1.747,0,3.495.014,5.242-.018a1.7,1.7,0,0,0,1.088-.32,1.511,1.511,0,0,0,.485-1.122c-.037-.24-.61-.552-.956-.572-1.476-.067-2.955-.04-4.431-.04-1.217,0-1.478-.186-1.9-1.445a2.957,2.957,0,0,1,.344-.04c3.078,0,6.156-.014,9.234,0,1.328,0,1.97.59,1.734,1.867-.465,2.6-1.117,5.155-1.688,7.705ZM0,13.551c.326-1.363.646-2.68.959-4s.624-2.657.937-4C.753,5.368.433,5.08.174,3.985H2.252c.2-.652.363-1.261.571-1.851A2.774,2.774,0,0,1,5.857-.005h6.2c-.19.955-.483,1.213-1.355,1.215-.911,0-1.822.017-2.733,0a1.076,1.076,0,0,0-1.222.913c-.142.591-.335,1.164-.528,1.845h4.2C9.965,5.282,9.7,5.48,8.47,5.479c-.592,0-1.182.024-1.773-.027s-.848.109-.982.739c-.485,2.3-1.051,4.589-1.592,6.879a4.142,4.142,0,0,1-.181.482ZM59.379,4.035C58.9,5.51,58.661,5.658,57.234,5.7c-.946.022-1.888.128-2.792.2C54.948,4.384,56.309,3.835,59.379,4.035Z" transform="translate(193.926 87.778)"/>
  </g>
</svg>
